<svg id="Layer_1" data-name="Layer 1" xmlns="http://www.w3.org/2000/svg" xmlns:xlink="http://www.w3.org/1999/xlink" viewBox="0 0 500.76 164.52"><defs><style>.cls-1{fill:#fff;}.cls-2{fill:#f5bb60;}.cls-3{fill:#e86f32;}.cls-4{fill:#e53d42;}.cls-5{fill:#bfd141;}.cls-6{fill:#6db64c;}.cls-7{fill:#afdbe7;}.cls-8{fill:#57badf;}.cls-9{fill:#02b2d6;}.cls-10{fill:url(#radial-gradient);}.cls-11{fill:#231f20;}.cls-12{fill:#382f27;}</style><radialGradient id="radial-gradient" cx="82.85" cy="73.69" r="16.24" gradientUnits="userSpaceOnUse"><stop offset="0" stop-color="#797979"/><stop offset="1" stop-color="#4c4c4c"/></radialGradient></defs><title>browserstack</title><rect class="cls-1" width="500.76" height="164.52"/><circle class="cls-2" cx="82.26" cy="82.26" r="46.15"/><circle class="cls-3" cx="77.61" cy="77.61" r="41.5"/><circle class="cls-4" cx="83.15" cy="72.08" r="35.97"/><circle class="cls-5" cx="86.02" cy="74.96" r="33.09"/><circle class="cls-6" cx="83.59" cy="77.39" r="30.65"/><circle class="cls-7" cx="78.74" cy="72.54" r="25.8"/><circle class="cls-8" cx="82.94" cy="68.33" r="21.59"/><circle class="cls-9" cx="85.57" cy="70.96" r="18.97"/><circle class="cls-10" cx="82.85" cy="73.69" r="16.24"/><circle class="cls-11" cx="82.85" cy="73.69" r="16.24"/><ellipse class="cls-1" cx="53.21" cy="31.67" rx="5.02" ry="3.21" transform="translate(38.65 103.37) rotate(-65.83)"/><path class="cls-12" d="M107.11,28.47a0.52,0.52,0,0,1,.57-0.53h14.53c8.27,0,12.17,3.82,12.17,9.61a8,8,0,0,1-4.54,7.65v0.11a8.5,8.5,0,0,1,5.23,8.13c0,7.17-4.88,10.62-13.44,10.62h-14a0.52,0.52,0,0,1-.57-0.53V28.47ZM122,43c3.45,0,5.57-1.91,5.57-4.73s-2.12-4.78-5.57-4.78h-7.81a0.29,0.29,0,0,0-.34.32v8.87a0.29,0.29,0,0,0,.34.32H122Zm-7.81,15.56h8.15c3.79,0,5.91-2,5.91-5s-2.12-5-5.91-5h-8.15a0.29,0.29,0,0,0-.34.32v9.4A0.29,0.29,0,0,0,114.23,58.53Z" transform="translate(36.12 36.12)"/><path class="cls-12" d="M139.84,64.05a0.52,0.52,0,0,1-.57-0.53V39a0.52,0.52,0,0,1,.57-0.53h5.28a0.52,0.52,0,0,1,.57.53v2.18h0.06c1.32-2,3.68-3.29,7.18-3.29a8.73,8.73,0,0,1,5.8,2.12c0.29,0.27.34,0.48,0.11,0.74l-3,3.56a0.55,0.55,0,0,1-.8.11,7.91,7.91,0,0,0-4.08-1.22c-3.62,0-5.23,2.39-5.23,6.48V63.52a0.52,0.52,0,0,1-.57.53h-5.28Z" transform="translate(36.12 36.12)"/><path class="cls-12" d="M159.91,57.57a17.6,17.6,0,0,1-.92-6.32,17.6,17.6,0,0,1,.92-6.32c1.55-4.46,5.8-7.06,11.43-7.06s9.82,2.6,11.37,7.06a17.6,17.6,0,0,1,.92,6.32,17.6,17.6,0,0,1-.92,6.32c-1.55,4.46-5.8,7.06-11.37,7.06S161.46,62,159.91,57.57ZM176.51,56a13.43,13.43,0,0,0,.57-4.73,13.61,13.61,0,0,0-.57-4.73,5.1,5.1,0,0,0-5.17-3.35,5.18,5.18,0,0,0-5.23,3.35,13.61,13.61,0,0,0-.57,4.73,13.43,13.43,0,0,0,.57,4.73,5.18,5.18,0,0,0,5.23,3.35A5.1,5.1,0,0,0,176.51,56Z" transform="translate(36.12 36.12)"/><path class="cls-12" d="M211.48,64.05a0.72,0.72,0,0,1-.69-0.53l-5.34-16.36h-0.12l-5.4,16.36a0.72,0.72,0,0,1-.69.53h-4.71a0.72,0.72,0,0,1-.69-0.53L185.12,39a0.37,0.37,0,0,1,.4-0.53H191a0.68,0.68,0,0,1,.75.53l5.34,16.89h0.12L202.52,39a0.79,0.79,0,0,1,.75-0.53h4.13a0.79,0.79,0,0,1,.75.53l5.63,16.89h0.11L218.95,39a0.68,0.68,0,0,1,.75-0.53h5.51a0.37,0.37,0,0,1,.4.53l-8.73,24.54a0.72,0.72,0,0,1-.69.53h-4.71Z" transform="translate(36.12 36.12)"/><path class="cls-12" d="M226.74,60.6a0.49,0.49,0,0,1,0-.74L230,56.67a0.59,0.59,0,0,1,.8,0,13.41,13.41,0,0,0,8.1,2.92c3.39,0,5.11-1.28,5.11-3,0-1.54-1-2.5-4.59-2.81l-3-.27c-5.63-.53-8.5-3.19-8.5-7.54,0-4.94,3.85-8.07,10.74-8.07A17.69,17.69,0,0,1,249.08,41a0.5,0.5,0,0,1,.12.74l-2.81,3.13a0.59,0.59,0,0,1-.8.11,14.12,14.12,0,0,0-7.24-2.12c-2.76,0-4.19,1.12-4.19,2.66s1,2.39,4.54,2.71l3,0.27c5.8,0.53,8.56,3.29,8.56,7.49,0,5.1-4,8.66-11.6,8.66A18,18,0,0,1,226.74,60.6Z" transform="translate(36.12 36.12)"/><path class="cls-12" d="M254.63,57.52a18.48,18.48,0,0,1-1-6.27,19,19,0,0,1,.92-6.32c1.55-4.46,5.8-7.06,11.31-7.06,5.69,0,9.82,2.71,11.37,7.06,0.63,1.81.92,3.56,0.92,7.7a0.54,0.54,0,0,1-.63.53H260.49a0.29,0.29,0,0,0-.34.32,5.25,5.25,0,0,0,.4,2c0.92,2.5,3.1,3.88,6.2,3.88a8.68,8.68,0,0,0,6.49-2.44,0.62,0.62,0,0,1,.86-0.11l3.39,2.76a0.45,0.45,0,0,1,.06.74c-2.35,2.55-6.26,4.35-11.37,4.35C260.31,64.64,256.18,62,254.63,57.52Zm16.71-11.31c-0.75-2.07-2.81-3.29-5.4-3.29s-4.71,1.22-5.46,3.29a6,6,0,0,0-.34,2.18,0.29,0.29,0,0,0,.34.32h10.85a0.29,0.29,0,0,0,.34-0.32A6,6,0,0,0,271.34,46.21Z" transform="translate(36.12 36.12)"/><path class="cls-12" d="M282.94,64.05a0.52,0.52,0,0,1-.57-0.53V39a0.52,0.52,0,0,1,.57-0.53h5.28a0.52,0.52,0,0,1,.57.53v2.18h0.06c1.32-2,3.68-3.29,7.18-3.29a8.73,8.73,0,0,1,5.8,2.12c0.29,0.27.34,0.48,0.12,0.74l-3,3.56a0.55,0.55,0,0,1-.8.11A7.9,7.9,0,0,0,294,43.18c-3.62,0-5.23,2.39-5.23,6.48V63.52a0.52,0.52,0,0,1-.57.53h-5.28Z" transform="translate(36.12 36.12)"/><path class="cls-12" d="M302.93,59.86a0.55,0.55,0,0,1-.11-0.8l3.56-3.82a0.54,0.54,0,0,1,.8-0.05A18.28,18.28,0,0,0,317.81,59c4.65,0,7.35-2.18,7.35-5.2,0-2.6-1.72-4.3-7.12-5L316,48.55c-7.52-1-11.77-4.3-11.77-10.3,0-6.53,5.17-10.89,13.21-10.89A22.68,22.68,0,0,1,330,31a0.46,0.46,0,0,1,.11.74l-2.76,3.93a0.6,0.6,0,0,1-.8.16A17.41,17.41,0,0,0,317.23,33c-4,0-6.14,2-6.14,4.83,0,2.5,1.89,4.2,7.18,4.89L320.33,43c7.52,1,11.66,4.25,11.66,10.46,0,6.43-5,11.21-14.7,11.21C311.55,64.64,306,62.51,302.93,59.86Z" transform="translate(36.12 36.12)"/><path class="cls-12" d="M343.89,64.51c-5.57,0-7.7-2.5-7.7-7.49V43.53a0.29,0.29,0,0,0-.34-0.32H334a0.52,0.52,0,0,1-.57-0.53V39.12a0.52,0.52,0,0,1,.57-0.53h1.84a0.29,0.29,0,0,0,.34-0.32v-7a0.52,0.52,0,0,1,.57-0.53h5.28a0.52,0.52,0,0,1,.57.53v7a0.29,0.29,0,0,0,.34.32h3.68a0.52,0.52,0,0,1,.57.53v3.56a0.52,0.52,0,0,1-.57.53H343a0.29,0.29,0,0,0-.34.32V56.8c0,1.81.8,2.39,2.58,2.39h1.44a0.52,0.52,0,0,1,.57.53V64a0.52,0.52,0,0,1-.57.53h-2.76Z" transform="translate(36.12 36.12)"/><path class="cls-12" d="M368.24,64.05a0.52,0.52,0,0,1-.57-0.53V61.66h-0.06c-1.32,1.75-3.91,3-7.81,3-5.05,0-9.3-2.44-9.3-7.81,0-5.58,4.25-8.13,11.08-8.13h5.63a0.29,0.29,0,0,0,.34-0.32V47.17c0-2.92-1.49-4.25-6.14-4.25a10.24,10.24,0,0,0-6.32,1.75,0.54,0.54,0,0,1-.8-0.11l-2.13-3.51a0.47,0.47,0,0,1,.11-0.69c2.24-1.49,5.28-2.5,9.82-2.5,8.44,0,11.54,2.66,11.54,8.92V63.52a0.52,0.52,0,0,1-.57.53h-4.82Zm-0.69-8.6v-2a0.29,0.29,0,0,0-.34-0.32h-4.59c-4.13,0-6,1.06-6,3.45,0,2.12,1.66,3.19,4.77,3.19C365.37,59.81,367.55,58.37,367.55,55.45Z" transform="translate(36.12 36.12)"/><path class="cls-12" d="M378.69,57.57a18.72,18.72,0,0,1-.86-6.32,18.72,18.72,0,0,1,.86-6.32c1.61-4.57,5.86-7.06,11.43-7.06a12.48,12.48,0,0,1,9.59,4,0.49,0.49,0,0,1-.06.74L396,45.52a0.54,0.54,0,0,1-.8-0.11,6.47,6.47,0,0,0-5.11-2.23,5.07,5.07,0,0,0-5.17,3.35,14,14,0,0,0-.57,4.73,14.31,14.31,0,0,0,.57,4.78,5.09,5.09,0,0,0,5.17,3.29,6.47,6.47,0,0,0,5.11-2.23A0.54,0.54,0,0,1,396,57L399.65,60a0.49,0.49,0,0,1,.06.74,12.63,12.63,0,0,1-9.59,3.93C384.55,64.64,380.3,62.14,378.69,57.57Z" transform="translate(36.12 36.12)"/><path class="cls-12" d="M422.13,64.05a1,1,0,0,1-.92-0.53l-7-10.73-3.73,4v6.74a0.52,0.52,0,0,1-.57.53h-5.28a0.52,0.52,0,0,1-.57-0.53V28.47a0.52,0.52,0,0,1,.57-0.53h5.28a0.52,0.52,0,0,1,.57.53V49.29L419.95,39a1.34,1.34,0,0,1,1.09-.53h5.86a0.3,0.3,0,0,1,.23.53l-8.79,9.35,10.11,15.19a0.32,0.32,0,0,1-.29.53h-6Z" transform="translate(36.12 36.12)"/></svg>