<svg id="od_2016_team" data-name="Layer 1" xmlns="http://www.w3.org/2000/svg" viewBox="0 0 792 612"><defs><style>.cls-1{fill:#f4dab2;}.cls-2{fill:#fff0da;}.cls-3{font-size:10px;fill:#57585a;}.cls-3,.cls-8{font-family:Gudea-Bold, Gudea, Helvetica, Verdana, sans-serif; font-weight:bold;}.cls-4,.cls-8{font-weight:700;}.cls-5{letter-spacing:-0.04em;}.cls-6{font-size:12px;font-family:Gudea, Gudea, Helvetica, Verdana, sans-serif;}.cls-7{letter-spacing:-0.04em;}.cls-8{font-size:20px;fill:#58585a;}.cls-9{fill:none;stroke:#fff0da;stroke-miterlimit:10;stroke-width:8px;}</style></defs><title>Artboard 1</title><circle class="cls-1" cx="395.99" cy="298.2" r="200"/><circle class="cls-2" cx="395.99" cy="360.7" r="137.5"/><circle class="cls-2" cx="641.12" cy="460.91" r="87.5"/><circle class="cls-2" cx="150.88" cy="460.91" r="87.5"/><text class="cls-3" transform="translate(89.53 424.03)"><tspan class="cls-4">SUBJECT M<tspan class="cls-5" x="47.62" y="0">A</tspan><tspan x="53.01" y="0">TTER EXPERTS</tspan></tspan><tspan class="cls-6"><tspan x="0" y="18">Brian</tspan><tspan x="0" y="32.4">Erin</tspan><tspan x="0" y="46.8">Julia</tspan><tspan x="0" y="61.2">Sarah</tspan></tspan></text><text class="cls-3" transform="translate(607.49 424.03)"><tspan class="cls-4">S<tspan class="cls-7" x="5.51" y="0">T</tspan><tspan x="10.15" y="0">AKEHOLDERS</tspan></tspan><tspan class="cls-6"><tspan x="0" y="18">Adriene</tspan><tspan x="0" y="32.4">Faye</tspan></tspan></text><text class="cls-3" transform="translate(370.69 119.46)"><tspan class="cls-4">MANAGERS</tspan><tspan class="cls-6"><tspan x="0" y="18">Brian</tspan><tspan x="0" y="32.4">Dave</tspan><tspan x="0" y="46.8">Duncan</tspan><tspan x="0" y="61.2">Julia</tspan><tspan x="0" y="75.6">Margaret</tspan><tspan x="0" y="90">Mike</tspan></tspan></text><text class="cls-3" transform="translate(370.69 300.38)"><tspan class="cls-4">CORE TEAM</tspan><tspan class="cls-6"><tspan x="0" y="18">Brandon</tspan><tspan x="0" y="32.4">Dave</tspan><tspan x="0" y="46.8">Greg</tspan><tspan x="0" y="61.2">Jeremy</tspan><tspan x="0" y="75.6">Josh</tspan><tspan x="0" y="90">Linda</tspan><tspan x="0" y="104.4">Ryan O.</tspan><tspan x="0" y="118.8">Ryan W.</tspan></tspan></text><text class="cls-8" transform="translate(266.72 60.97)">Oregon Digital 2016–17 Team</text><line class="cls-9" x1="224.27" y1="436.45" x2="271.2" y2="389.51"/><line class="cls-9" x1="567.22" y1="436.45" x2="520.29" y2="389.51"/></svg>
